<?xml version="1.0" encoding="UTF-8" standalone="no"?><svg xmlns="http://www.w3.org/2000/svg" xmlns:xlink= "http://www.w3.org/1999/xlink" width="599.9999999999998" height="390.00000000000006" aria-label="A chart." style="overflow: hidden;"><defs id="_ABSTRACT_RENDERER_ID_3742"><clipPath id="_ABSTRACT_RENDERER_ID_3743"><rect x="114" y="75" width="371" height="241"></rect></clipPath><filter id="_ABSTRACT_RENDERER_ID_3744"><feGaussianBlur in="SourceAlpha" stdDeviation="2"></feGaussianBlur><feOffset dx="1" dy="1"></feOffset><feComponentTransfer><feFuncA type="linear" slope="0.1"></feFuncA></feComponentTransfer><feMerge><feMergeNode></feMergeNode><feMergeNode in="SourceGraphic"></feMergeNode></feMerge></filter></defs><rect x="0" y="0" width="599.9999999999998" height="390.00000000000006" stroke="none" stroke-width="0" fill="#ffffff"></rect><g><text text-anchor="start" x="114" y="52.05" font-family="Arial" font-size="13" font-weight="bold" stroke="none" stroke-width="0" fill="#000000">Game Progression By Day</text><rect x="114" y="41" width="371" height="13" stroke="none" stroke-width="0" fill-opacity="0" fill="#ffffff"></rect></g><g><rect x="498" y="75" width="88.99999999999977" height="89" stroke="none" stroke-width="0" fill-opacity="0" fill="#ffffff"></rect><g><rect x="498" y="75" width="88.99999999999977" height="30" stroke="none" stroke-width="0" fill-opacity="0" fill="#ffffff"></rect><g><text text-anchor="start" x="529" y="86.05" font-family="Arial" font-size="13" stroke="none" stroke-width="0" fill="#222222">Papers</text><text text-anchor="start" x="529" y="103.05" font-family="Arial" font-size="13" stroke="none" stroke-width="0" fill="#222222">submitted</text></g><path d="M498,81.5L524,81.5" stroke="#151bc6" stroke-width="2" fill-opacity="1" fill="none"></path></g><g><rect x="498" y="113" width="88.99999999999977" height="30" stroke="none" stroke-width="0" fill-opacity="0" fill="#ffffff"></rect><g><text text-anchor="start" x="529" y="124.05" font-family="Arial" font-size="13" stroke="none" stroke-width="0" fill="#222222">Projects</text><text text-anchor="start" x="529" y="141.05" font-family="Arial" font-size="13" stroke="none" stroke-width="0" fill="#222222">comple…</text><rect x="529" y="113" width="57.99999999999977" height="30" stroke="none" stroke-width="0" fill-opacity="0" fill="#ffffff"></rect></g><path d="M498,119.5L524,119.5" stroke="#de1212" stroke-width="2" fill-opacity="1" fill="none"></path></g><g><rect x="498" y="151" width="88.99999999999977" height="13" stroke="none" stroke-width="0" fill-opacity="0" fill="#ffffff"></rect><g><text text-anchor="start" x="529" y="162.05" font-family="Arial" font-size="13" stroke="none" stroke-width="0" fill="#222222">Employ…</text><rect x="529" y="151" width="57.99999999999977" height="13" stroke="none" stroke-width="0" fill-opacity="0" fill="#ffffff"></rect></g><path d="M498,157.5L524,157.5" stroke="#ff9900" stroke-width="2" fill-opacity="1" fill="none"></path></g></g><g><rect x="114" y="75" width="371" height="241" stroke="none" stroke-width="0" fill-opacity="0" fill="#ffffff"></rect><g clip-path="url(https://www.rapidtables.com/tools/line-graph.html#_ABSTRACT_RENDERER_ID_3743)"><g><rect x="114" y="75" width="1" height="241" stroke="none" stroke-width="0" fill="#cccccc"></rect><rect x="180" y="75" width="1" height="241" stroke="none" stroke-width="0" fill="#cccccc"></rect><rect x="246" y="75" width="1" height="241" stroke="none" stroke-width="0" fill="#cccccc"></rect><rect x="312" y="75" width="1" height="241" stroke="none" stroke-width="0" fill="#cccccc"></rect><rect x="378" y="75" width="1" height="241" stroke="none" stroke-width="0" fill="#cccccc"></rect><rect x="444" y="75" width="1" height="241" stroke="none" stroke-width="0" fill="#cccccc"></rect><rect x="147" y="75" width="1" height="241" stroke="none" stroke-width="0" fill="#ebebeb"></rect><rect x="213" y="75" width="1" height="241" stroke="none" stroke-width="0" fill="#ebebeb"></rect><rect x="279" y="75" width="1" height="241" stroke="none" stroke-width="0" fill="#ebebeb"></rect><rect x="345" y="75" width="1" height="241" stroke="none" stroke-width="0" fill="#ebebeb"></rect><rect x="411" y="75" width="1" height="241" stroke="none" stroke-width="0" fill="#ebebeb"></rect><rect x="477" y="75" width="1" height="241" stroke="none" stroke-width="0" fill="#ebebeb"></rect><rect x="510" y="75" width="1" height="241" stroke="none" stroke-width="0" fill="#ebebeb"></rect><rect x="114" y="315" width="371" height="1" stroke="none" stroke-width="0" fill="#cccccc"></rect><rect x="114" y="255" width="371" height="1" stroke="none" stroke-width="0" fill="#cccccc"></rect><rect x="114" y="195" width="371" height="1" stroke="none" stroke-width="0" fill="#cccccc"></rect><rect x="114" y="135" width="371" height="1" stroke="none" stroke-width="0" fill="#cccccc"></rect><rect x="114" y="75" width="371" height="1" stroke="none" stroke-width="0" fill="#cccccc"></rect><rect x="114" y="285" width="371" height="1" stroke="none" stroke-width="0" fill="#ebebeb"></rect><rect x="114" y="225" width="371" height="1" stroke="none" stroke-width="0" fill="#ebebeb"></rect><rect x="114" y="165" width="371" height="1" stroke="none" stroke-width="0" fill="#ebebeb"></rect><rect x="114" y="105" width="371" height="1" stroke="none" stroke-width="0" fill="#ebebeb"></rect></g><g><rect x="114" y="75" width="1" height="241" stroke="none" stroke-width="0" fill="#333333"></rect><rect x="114" y="315" width="371" height="1" stroke="none" stroke-width="0" fill="#333333"></rect></g><g><path d="M114.5,315.5L127.71428571428571,314.9L140.92857142857142,314.3L154.14285714285714,314.3L167.35714285714286,314.3L180.57142857142856,313.7L193.78571428571428,313.1L207,310.1L220.21428571428572,310.1L233.42857142857142,310.1L246.64285714285714,308.3L259.8571428571429,305.9L273.07142857142856,304.7L286.2857142857143,302.3L299.5,298.7L312.71428571428567,298.1L325.92857142857144,295.7L339.1428571428571,293.3L352.35714285714283,290.3L365.57142857142856,287.3L378.7857142857143,283.1L392,279.5L405.2142857142857,274.1L418.4285714285714,270.5L431.6428571428571,265.7L444.85714285714283,258.5L458.07142857142856,251.3L471.2857142857143,244.7L484.5,241.10000000000002" stroke="#151bc6" stroke-width="2" fill-opacity="1" fill="none"></path><path d="M114.5,315.5L127.71428571428571,315.5L140.92857142857142,315.5L154.14285714285714,314.9L167.35714285714286,314.3L180.57142857142856,314.3L193.78571428571428,313.7L207,313.1L220.21428571428572,312.5L233.42857142857142,311.9L246.64285714285714,311.3L259.8571428571429,310.1L273.07142857142856,308.9L286.2857142857143,307.1L299.5,304.1L312.71428571428567,302.3L325.92857142857144,299.9L339.1428571428571,297.5L352.35714285714283,292.1L365.57142857142856,286.1L378.7857142857143,280.1L392,272.3L405.2142857142857,261.5L418.4285714285714,250.10000000000002L431.6428571428571,232.7L444.85714285714283,212.3L458.07142857142856,189.5L471.2857142857143,160.70000000000002L484.5,130.1" stroke="#de1212" stroke-width="2" fill-opacity="1" fill="none"></path><path d="M114.5,315.5L127.71428571428571,314.9L140.92857142857142,314.3L154.14285714285714,314.3L167.35714285714286,314.3L180.57142857142856,314.3L193.78571428571428,314.9L207,312.5L220.21428571428572,312.5L233.42857142857142,312.5L246.64285714285714,310.7L259.8571428571429,310.1L273.07142857142856,308.9L286.2857142857143,305.9L299.5,302.3L312.71428571428567,301.7L325.92857142857144,300.5L339.1428571428571,298.7L352.35714285714283,296.3L365.57142857142856,293.9L378.7857142857143,289.7L392,286.1L405.2142857142857,281.3L418.4285714285714,278.9L431.6428571428571,274.7L444.85714285714283,269.9L458.07142857142856,263.3L471.2857142857143,258.5L484.5,257.9" stroke="#ff9900" stroke-width="2" fill-opacity="1" fill="none"></path></g></g><g></g><g><g><text text-anchor="middle" x="114.5" y="335.05" font-family="Arial" font-size="13" stroke="none" stroke-width="0" fill="#444444">0</text></g><g><text text-anchor="middle" x="180.5714" y="335.05" font-family="Arial" font-size="13" stroke="none" stroke-width="0" fill="#444444">5</text></g><g><text text-anchor="middle" x="246.6429" y="335.05" font-family="Arial" font-size="13" stroke="none" stroke-width="0" fill="#444444">10</text></g><g><text text-anchor="middle" x="312.7143" y="335.05" font-family="Arial" font-size="13" stroke="none" stroke-width="0" fill="#444444">15</text></g><g><text text-anchor="middle" x="378.7857" y="335.05" font-family="Arial" font-size="13" stroke="none" stroke-width="0" fill="#444444">20</text></g><g><text text-anchor="middle" x="444.8571" y="335.05" font-family="Arial" font-size="13" stroke="none" stroke-width="0" fill="#444444">25</text></g><g><text text-anchor="end" x="101" y="320.05" font-family="Arial" font-size="13" stroke="none" stroke-width="0" fill="#444444">0</text></g><g><text text-anchor="end" x="101" y="260.05" font-family="Arial" font-size="13" stroke="none" stroke-width="0" fill="#444444">100</text></g><g><text text-anchor="end" x="101" y="200.05" font-family="Arial" font-size="13" stroke="none" stroke-width="0" fill="#444444">200</text></g><g><text text-anchor="end" x="101" y="140.05" font-family="Arial" font-size="13" stroke="none" stroke-width="0" fill="#444444">300</text></g><g><text text-anchor="end" x="101" y="80.05" font-family="Arial" font-size="13" stroke="none" stroke-width="0" fill="#444444">400</text></g></g></g><g><g><text text-anchor="middle" x="299.5" y="368.05" font-family="Arial" font-size="13" font-style="italic" stroke="none" stroke-width="0" fill="#222222">Day</text><rect x="114" y="357" width="371" height="13" stroke="none" stroke-width="0" fill-opacity="0" fill="#ffffff"></rect></g><g><text text-anchor="middle" x="44.05" y="195.5" font-family="Arial" font-size="13" font-style="italic" transform="rotate(-90 44.05 195.5)" stroke="none" stroke-width="0" fill="#222222">Number</text><path d="M32.99999999999999,316L33.00000000000001,75L46.00000000000001,75L45.99999999999999,316Z" stroke="none" stroke-width="0" fill-opacity="0" fill="#ffffff"></path></g></g><g></g></svg>