<?xml version="1.0" encoding="UTF-8" standalone="no"?><svg xmlns="http://www.w3.org/2000/svg" xmlns:xlink= "http://www.w3.org/1999/xlink" width="599.9999999999998" height="390.00000000000006" aria-label="A chart." style="overflow: hidden;"><defs id="_ABSTRACT_RENDERER_ID_4030"><clipPath id="_ABSTRACT_RENDERER_ID_4031"><rect x="114" y="75" width="371" height="241"></rect></clipPath></defs><rect x="0" y="0" width="599.9999999999998" height="390.00000000000006" stroke="none" stroke-width="0" fill="#ffffff"></rect><g><text text-anchor="start" x="114" y="52.05" font-family="Arial" font-size="13" font-weight="bold" stroke="none" stroke-width="0" fill="#000000">Game Progression By Hour</text><rect x="114" y="41" width="371" height="13" stroke="none" stroke-width="0" fill-opacity="0" fill="#ffffff"></rect></g><g><rect x="498" y="75" width="88.99999999999977" height="85" stroke="none" stroke-width="0" fill-opacity="0" fill="#ffffff"></rect><g><rect x="498" y="75" width="88.99999999999977" height="30" stroke="none" stroke-width="0" fill-opacity="0" fill="#ffffff"></rect><g><text text-anchor="start" x="529" y="86.05" font-family="Arial" font-size="13" stroke="none" stroke-width="0" fill="#222222">Total</text><text text-anchor="start" x="529" y="103.05" font-family="Arial" font-size="13" stroke="none" stroke-width="0" fill="#222222">money</text></g><path d="M498,81.5L524,81.5" stroke="#151bc6" stroke-width="2" fill-opacity="1" fill="none"></path></g><g><rect x="498" y="113" width="88.99999999999977" height="47" stroke="none" stroke-width="0" fill-opacity="0" fill="#ffffff"></rect><g><text text-anchor="start" x="529" y="124.05" font-family="Arial" font-size="13" stroke="none" stroke-width="0" fill="#222222">Lines of</text><text text-anchor="start" x="529" y="141.05" font-family="Arial" font-size="13" stroke="none" stroke-width="0" fill="#222222">code</text><text text-anchor="start" x="529" y="158.05" font-family="Arial" font-size="13" stroke="none" stroke-width="0" fill="#222222">written</text></g><path d="M498,119.5L524,119.5" stroke="#de1212" stroke-width="2" fill-opacity="1" fill="none"></path></g></g><g><rect x="114" y="75" width="371" height="241" stroke="none" stroke-width="0" fill-opacity="0" fill="#ffffff"></rect><g clip-path="url(https://www.rapidtables.com/tools/line-graph.html#_ABSTRACT_RENDERER_ID_4031)"><g><rect x="114" y="75" width="1" height="241" stroke="none" stroke-width="0" fill="#cccccc"></rect><rect x="218" y="75" width="1" height="241" stroke="none" stroke-width="0" fill="#cccccc"></rect><rect x="322" y="75" width="1" height="241" stroke="none" stroke-width="0" fill="#cccccc"></rect><rect x="425" y="75" width="1" height="241" stroke="none" stroke-width="0" fill="#cccccc"></rect><rect x="166" y="75" width="1" height="241" stroke="none" stroke-width="0" fill="#ebebeb"></rect><rect x="270" y="75" width="1" height="241" stroke="none" stroke-width="0" fill="#ebebeb"></rect><rect x="373" y="75" width="1" height="241" stroke="none" stroke-width="0" fill="#ebebeb"></rect><rect x="477" y="75" width="1" height="241" stroke="none" stroke-width="0" fill="#ebebeb"></rect><rect x="529" y="75" width="1" height="241" stroke="none" stroke-width="0" fill="#ebebeb"></rect><rect x="114" y="315" width="371" height="1" stroke="none" stroke-width="0" fill="#cccccc"></rect><rect x="114" y="288" width="371" height="1" stroke="none" stroke-width="0" fill="#cccccc"></rect><rect x="114" y="258" width="371" height="1" stroke="none" stroke-width="0" fill="#cccccc"></rect><rect x="114" y="227" width="371" height="1" stroke="none" stroke-width="0" fill="#cccccc"></rect><rect x="114" y="197" width="371" height="1" stroke="none" stroke-width="0" fill="#cccccc"></rect><rect x="114" y="166" width="371" height="1" stroke="none" stroke-width="0" fill="#cccccc"></rect><rect x="114" y="136" width="371" height="1" stroke="none" stroke-width="0" fill="#cccccc"></rect><rect x="114" y="105" width="371" height="1" stroke="none" stroke-width="0" fill="#cccccc"></rect><rect x="114" y="75" width="371" height="1" stroke="none" stroke-width="0" fill="#cccccc"></rect><rect x="114" y="300" width="371" height="1" stroke="none" stroke-width="0" fill="#ebebeb"></rect><rect x="114" y="295" width="371" height="1" stroke="none" stroke-width="0" fill="#ebebeb"></rect><rect x="114" y="291" width="371" height="1" stroke="none" stroke-width="0" fill="#ebebeb"></rect><rect x="114" y="279" width="371" height="1" stroke="none" stroke-width="0" fill="#ebebeb"></rect><rect x="114" y="270" width="371" height="1" stroke="none" stroke-width="0" fill="#ebebeb"></rect><rect x="114" y="264" width="371" height="1" stroke="none" stroke-width="0" fill="#ebebeb"></rect><rect x="114" y="261" width="371" height="1" stroke="none" stroke-width="0" fill="#ebebeb"></rect><rect x="114" y="248" width="371" height="1" stroke="none" stroke-width="0" fill="#ebebeb"></rect><rect x="114" y="239" width="371" height="1" stroke="none" stroke-width="0" fill="#ebebeb"></rect><rect x="114" y="234" width="371" height="1" stroke="none" stroke-width="0" fill="#ebebeb"></rect><rect x="114" y="230" width="371" height="1" stroke="none" stroke-width="0" fill="#ebebeb"></rect><rect x="114" y="218" width="371" height="1" stroke="none" stroke-width="0" fill="#ebebeb"></rect><rect x="114" y="209" width="371" height="1" stroke="none" stroke-width="0" fill="#ebebeb"></rect><rect x="114" y="203" width="371" height="1" stroke="none" stroke-width="0" fill="#ebebeb"></rect><rect x="114" y="200" width="371" height="1" stroke="none" stroke-width="0" fill="#ebebeb"></rect><rect x="114" y="188" width="371" height="1" stroke="none" stroke-width="0" fill="#ebebeb"></rect><rect x="114" y="178" width="371" height="1" stroke="none" stroke-width="0" fill="#ebebeb"></rect><rect x="114" y="173" width="371" height="1" stroke="none" stroke-width="0" fill="#ebebeb"></rect><rect x="114" y="169" width="371" height="1" stroke="none" stroke-width="0" fill="#ebebeb"></rect><rect x="114" y="157" width="371" height="1" stroke="none" stroke-width="0" fill="#ebebeb"></rect><rect x="114" y="148" width="371" height="1" stroke="none" stroke-width="0" fill="#ebebeb"></rect><rect x="114" y="143" width="371" height="1" stroke="none" stroke-width="0" fill="#ebebeb"></rect><rect x="114" y="139" width="371" height="1" stroke="none" stroke-width="0" fill="#ebebeb"></rect><rect x="114" y="127" width="371" height="1" stroke="none" stroke-width="0" fill="#ebebeb"></rect><rect x="114" y="118" width="371" height="1" stroke="none" stroke-width="0" fill="#ebebeb"></rect><rect x="114" y="112" width="371" height="1" stroke="none" stroke-width="0" fill="#ebebeb"></rect><rect x="114" y="108" width="371" height="1" stroke="none" stroke-width="0" fill="#ebebeb"></rect><rect x="114" y="96" width="371" height="1" stroke="none" stroke-width="0" fill="#ebebeb"></rect><rect x="114" y="87" width="371" height="1" stroke="none" stroke-width="0" fill="#ebebeb"></rect><rect x="114" y="82" width="371" height="1" stroke="none" stroke-width="0" fill="#ebebeb"></rect><rect x="114" y="78" width="371" height="1" stroke="none" stroke-width="0" fill="#ebebeb"></rect></g><g><rect x="114" y="75" width="1" height="241" stroke="none" stroke-width="0" fill="#333333"></rect><rect x="114" y="315" width="371" height="1" stroke="none" stroke-width="0" fill="#333333"></rect></g><g><path d="M114.5,227.6665550701494L115.0196629213483,227.6665550701494L115.53932584269661,227.6665550701494L116.05898876404491,227.6665550701494L116.57865168539321,227.6665550701494L117.09831460674151,227.6665550701494L117.61797752808982,227.6665550701494L118.13764044943812,227.6665550701494L118.65730337078642,227.6665550701494L119.17696629213472,227.6665550701494L119.69662921348304,227.6665550701494L120.2162921348303,227.6665550701494L120.73595505617756,227.6665550701494L121.25561797753001,227.6665550701494L121.77528089887728,227.6665550701494L122.29494382022455,227.6665550701494L122.81460674157181,227.6665550701494L123.33426966291907,227.6665550701494L123.85393258427153,227.6665550701494L124.3735955056188,227.6665550701494L124.89325842696606,227.6665550701494L125.41292134831332,227.6665550701494L125.9325842696606,227.6665550701494L126.45224719101304,227.6665550701494L126.9719101123603,227.6665550701494L127.49157303370757,227.6665550701494L128.01123595505484,227.6665550701494L128.5308988764021,227.6665550701494L129.05056179775457,227.6665550701494L129.57022471910182,227.6665550701494L130.0898876404491,227.67977870210734L130.60955056179637,227.6930155775647L131.12921348314362,227.70626572307486L131.64887640449606,227.71952916527115L132.16853932584334,227.7328059308672L132.68820224719062,227.7460960466571L133.20786516853786,227.75939953951598L133.72752808988514,227.7727164364002L134.2471910112376,227.78604676434756L134.76685393258487,227.79939055047788L135.2865168539321,227.81274782199316L135.8061797752794,227.81274782199316L136.32584269662664,227.82611860617791L136.84550561797911,227.8395029303996L137.36516853932636,227.8529008221089L137.88483146067364,227.86631230884L138.4044943820209,227.87973741821105L138.92415730337336,227.89317617792446L139.4438202247206,227.90662861576715L139.9634831460679,227.920094759611L140.48314606741513,227.93357463741327L141.0028089887624,227.9470682772167L141.52247191011486,227.96057570715004L142.04213483146214,227.97409695542845L142.5617977528094,227.9876320503537L143.08146067415666,228.00118102031462L143.60112359550394,228.01474389378743L144.12078651685638,228.02832069933612L144.64044943820366,228.04191146561274L145.1601123595509,228.0555162213579L145.67977528089818,228.06913499540101L146.19943820224543,228.0827678166607L146.7191011235979,228.0964147141451L147.23876404494516,228.11007571695245L147.75842696629243,228.12375085427118L148.27808988763968,228.1374401553804L148.79775280898696,228.1511436496504L149.3174157303394,228.16486136654288L149.83707865168668,228.1785933356113L150.35674157303396,228.1923395865014L150.8764044943812,228.21987505279287L151.39606741572848,228.24746800444188L151.91573033708093,228.27511868197325L152.43539325842818,228.30282732742444L152.95505617977545,228.33059418435846L153.47471910112273,228.3584194978765L153.99438202247,228.38630351463112L154.51404494382246,228.41424648283925L155.0337078651697,228.44224865229546L155.55337078651698,228.47031027438535L156.07303370786423,228.49843160209917L156.5926966292115,228.52661289004539L157.11235955056395,228.5548543944646L157.63202247191123,228.58315637324353L158.1516853932585,228.61151908592905L158.67134831460575,228.6399427937426L159.19101123595303,228.66842775959446L159.71067415730548,228.69697424809857L160.23033707865272,228.72558252558701L160.75,228.75425286012515L161.26966292134728,226.18049385999015L161.78932584269452,226.20413790751104L162.308988764047,226.22782432789967L162.82865168539425,226.25155327330282L163.34831460674152,226.2753248966883L163.86797752808877,226.29913935185078L164.38764044943605,226.32299679341776L164.9073033707885,226.34689737685557L165.42696629213577,226.37084125847537L165.94662921348302,226.3948285954396L166.4662921348303,226.4188595457678L166.98595505618795,226.44293426834298L167.5056179775456,226.467052922918L168.02528089885135,226.4912156701219L168.54494382020897,226.5154226714663L169.06460674156662,226.53967408935182L169.58426966292427,226.5639700870747L170.1039325842819,226.58831082883341L170.62359550563957,226.61269647973518L171.1432584269453,226.63712720580293L171.66292134830294,226.6616031739818L172.1825842696606,226.68612455214623L172.70224719101824,226.7106915091067L173.2219101123759,226.73530421461678L173.74157303373352,226.7599628393802L174.26123595503927,226.7846675550578L174.78089887639692,226.80941853427493L175.30056179775457,226.8342159506285L175.82022471911222,226.8590599786944L176.33988764046984,226.88395079403472L176.8595505617756,226.90888857320545L177.37921348313324,226.93387349376368L177.8988764044909,226.9589057342755L178.41853932584854,226.9839854743234L178.93820224720616,227.00911289451415L179.4578651685638,227.03428817648654L179.97752808986957,227.05951150291935L180.49719101122722,227.0847830575391L181.01685393258487,227.11010302512835L181.5365168539425,227.13547159153353L182.05617977530014,227.16088894367343L182.5758426966059,227.1863552695471L183.09550561796354,227.21187075824258L183.6151685393212,227.23743559994497L184.1348314606788,227.26304998594523L184.65449438203646,227.28871410864855L185.1741573033941,227.31442816158315L185.6938202246999,227.340192339409L186.2134831460575,227.3660068379266L186.73314606741513,227.39187185408605L187.25280898877278,227.41778758599594L187.77247191013043,227.44375423293246L188.29213483143621,227.46977199534868L188.81179775279384,227.4958410748838L189.33146067415146,227.52196167437242L189.85112359550914,227.54813399785422L190.37078651686676,227.57435825058332L190.8904494382244,227.60063463903802L191.41011235953016,227.62696337093058L191.9297752808878,227.65334465521713L192.44943820224546,227.67977870210734L192.96910112360308,227.70626572307486L193.48876404496073,227.7328059308672L194.00842696631838,227.75939953951598L194.52808988762413,227.78604676434756L195.04775280898178,227.81274782199316L195.5674157303394,227.8395029303996L196.08707865169708,227.86631230884L196.6067415730547,227.89317617792446L197.12640449436046,227.920094759611L197.6460674157181,227.920094759611L198.16573033707573,227.920094759611L198.6853932584334,227.920094759611L199.20505617979103,227.920094759611L199.72471910114865,227.920094759611L200.24438202245443,227.920094759611L200.76404494381208,227.920094759611L201.28370786516973,228.0964147141451L201.80337078652735,228.3167034641735L202.32303370788497,228.82620197105803L202.84269662919075,229.40126617316687L203.36235955054838,230.22516838438776L203.88202247190605,231.1038643105977L204.40168539326368,232.0451646058399L204.92134831462133,233.48279090796478L205.44101123597898,235.3773152942009L205.9606741572847,238.1034809605904L206.48033707864238,241.54207407767234L207,246.20241638339908L207.51966292135765,253.46522753575806L208.0393258427153,266.74282465428604L208.55898876402102,358.39694992552427L209.0786516853787,374.7432651158178L209.59831460673632,382.4408017079113L210.11797752809397,387.7202209241963L210.63764044945162,391.4825293421348L211.15730337080927,394.4077690918456L211.67696629211503,396.80145701590675L212.19662921347265,398.8273864106518L212.7162921348303,201.5311050988078L213.23595505618795,201.73205116557511L213.7556179775456,201.93609956004494L214.27528089885135,202.14334757753136L214.79494382020897,202.3538971634322L215.31460674156662,202.56785521435762L215.83426966292427,202.78533390403632L216.35393258428192,203.00645103648606L216.87359550563957,203.2313304292328L217.3932584269453,203.46010232969905L217.91292134830294,203.69290386826754L218.4325842696606,203.92987955196668L218.95224719101824,194.1618631708567L219.4719101123759,194.27655203086476L219.99157303373352,194.3922448053229L220.5112359550393,194.50895922482442L221.03089887639692,194.626713493873L221.55056179775457,194.74552630792377L222.07022471911222,194.86541687119717L222.58988764046984,194.98640491530833L223.10955056177562,195.10851071875726L223.62921348313324,195.23175512732718L224.1488764044909,195.35615957544348L224.66853932584854,195.48174610854716L225.18820224720616,195.60853740654136L225.7078651685638,195.73655680837376L226.22752808986957,195.86582833782091L226.74719101122724,195.99637673054616L227.26685393258487,187.50785144382868L227.7865168539425,187.57705564061825L228.30617977530014,187.64662409808287L228.8258426966059,187.71656067114043L229.34550561796357,187.78686927622846L229.8651685393212,187.85755389262033L230.3848314606788,187.92861856377655L230.9044943820365,188.0000673987328L231.4241573033941,188.07190457352553L231.9438202246999,188.14413433265668L232.4634831460575,188.21676099059846L232.98314606741513,188.28978893333985L233.5028089887728,188.363222619976L234.02247191013043,188.43706658434198L234.54213483143621,188.5113254366925L235.06179775279384,188.58600386542912L235.5814606741515,188.66110663887642L236.10112359550914,188.73663860710903L236.62078651686676,188.81260470383103L237.1404494382244,188.88900994830982L237.66011235953016,188.96585944736623L238.1797752808878,189.04315839742253L238.69943820224546,189.12091208661113L239.21910112360308,189.1991258969453L239.73876404496076,189.27780530655474L240.25842696631838,189.35695589198784L240.77808988762413,189.43658333058363L241.29775280898178,189.51669340291534L241.81741573033943,189.59729199530855L242.33707865169708,189.67838510243664L242.8567415730547,189.75997882999624L243.37640449436046,189.84207939746594L243.8960674157181,189.92469314095106L244.41573033707576,190.00782651611803L244.93539325843338,190.0914861012215L245.45505617979103,190.17567860022794L245.97471910114868,190.2604108460394L246.49438202245443,190.34568980382122L247.01404494381208,190.44258747172643L247.53370786516973,190.54498088874746L248.05337078652735,190.6481737540647L248.573033707885,190.7546071326087L249.09269662919075,190.8790551988934L249.6123595505484,191.00468618317342L250.13202247190603,191.13985529447393L250.6516853932637,191.2899026588272L251.17134831462133,191.44167302828833L251.69101123597898,191.5952064337734L252.21067415728473,191.75054431768024L252.73033707864238,191.90772960103675L253.25,192.06680675468994L253.76966292135765,192.22782187483173L254.2893258427153,192.3908227631821L254.80898876402105,192.53546380445152L255.32865168537867,192.64896322247478L255.84831460673632,192.75402453737337L256.367977528094,192.85992767461263L256.8876404494516,192.96668623373512L257.40730337080925,193.07431414651717L257.926966292115,193.18963733045854L258.44662921347265,193.32267927900983L258.96629213483027,193.45707405113L259.48595505618795,193.59586026659656L260.00561797754557,184.1466001728971L260.5252808988513,184.2229324435276L261.04494382020897,184.30567068315176L261.56460674156665,184.38893012671832L262.08426966292427,184.47271738245533L262.6039325842819,184.55855887758082L263.12359550563957,184.65822600621226L263.6432584269453,184.75865042064245L264.1629213483029,184.85984371697887L264.6825842696606,184.96913181449332L265.2022471910183,185.0840745490293L265.7219101123759,178.8927341484082L266.2415730337335,178.96519805258063L266.7612359550393,179.03806144008684L267.2808988763969,179.11132873994578L267.80056179775454,179.18500445524313L268.3202247191122,179.25909316479195L268.8398876404699,179.3335995248404L269.3595505617756,175.21084679361005L269.87921348313324,175.26565552499508L270.3988764044909,175.32069248562934L270.91853932584854,175.37595958420417L271.43820224720616,175.43145875345525L271.95786516856384,175.48719195056796L272.47752808986957,175.54316115759184L272.9971910112272,175.59936838186323L273.51685393258487,175.6558156564375L274.03651685394254,175.71250504053017L274.55617977530017,175.76943861996764L275.0758426966059,175.8266185076478L275.59550561796357,175.88404684401044L276.1151685393212,175.9417257975181L276.6348314606788,175.9996575651473L277.1544943820365,176.0623718894061L277.67415730339417,176.1253852103814L278.1938202246999,176.1887003927287L278.7134831460575,176.25232034247077L279.2331460674152,176.3200500598203L279.7528089887728,176.38894771796132L280.27247191013043,176.45820640852833L280.7921348314362,176.52782993517263L281.31179775279384,176.597822161974L281.83146067415146,176.6681870147275L282.35112359550914,176.7389284822647L282.8707865168668,176.81005061781056L283.39044943822444,176.88155754037706L283.91011235953016,176.9557332152496L284.42977528088784,177.0329072659743L284.94943820224546,177.11053458317446L285.4691011236031,177.1961643178986L285.9887640449607,177.28994994534517L286.50842696631844,177.38440581777442L287.02808988762416,177.47954158408137L287.5477528089818,177.57536710303202L288.06741573033946,177.6746005158194L288.5870786516971,177.78095360314364L289.1067415730547,173.65835260067314L289.6264044943605,173.7367537793476L290.1460674157181,173.81562279741897L290.66573033707573,173.89541744492774L291.18539325843335,170.55210298445638L291.7050561797911,170.61792598024164L292.2247191011487,170.6840784271129L292.74438202245443,167.53881604456382L293.2640449438121,167.5911934666824L293.78370786516973,167.64377928019113L294.30337078652735,167.6965751499485L294.823033707885,165.3079674230587L295.34269662919075,165.3553951996659L295.8623595505484,165.40453974697618L296.382022471906,165.45506148634698L296.90168539326373,165.50577708511886L297.42134831462135,165.55813177023626L297.941011235979,165.61105706188533L298.46067415728476,165.66419513614773L298.9803370786424,165.71791304898693L299.5,165.7745405913973L300.0196629213576,165.8314117955185L300.5393258427153,165.88963908351596L301.058988764021,163.82571027061064L301.57865168537865,163.87794859482258L302.0983146067363,163.93039420285916L302.617977528094,161.8070967311339L303.1376404494516,161.85728760088554L303.65730337080925,161.90766979435043L304.176966292115,161.95824477573416L304.69662921347265,162.00901402611532L305.21629213483027,162.05997904370574L305.73595505618795,162.11114134411585L306.2556179775456,162.162502460625L306.77528089890325,162.21406394445722L307.29494382020897,162.2658273650624L307.81460674156665,162.31779431040283L308.33426966292427,162.36996638724563L308.8539325842819,162.42234522146072L309.37359550563957,162.47493245832487L309.8932584269453,162.52772976283188L310.4129213483029,162.58073882000883L310.9325842696606,162.63396133523875L311.4522471910183,162.68739903458976L311.9719101123759,162.74105366515124L312.4915730337335,162.7949269953762L313.0112359550393,162.8490208154312L313.5308988763969,162.9033369375534L314.05056179775454,162.95787719641464L314.5702247191122,163.0126434494934L315.0898876404699,163.0676375774544L315.6095505617756,163.12286148453603L316.12921348313324,163.1783170989461L316.6488764044909,163.2340063732657L317.16853932584854,163.28993128486184L317.68820224720616,163.34609383630863L318.20786516856384,163.40249605581764L318.72752808986957,163.45913999767737L319.24719101122724,163.51602774270222L319.76685393258487,163.5731613986911L320.28651685394254,163.63054310089606L320.80617977530017,163.68817501250126L321.3258426966059,163.74605932511204L321.84550561796357,163.80419825925523L322.3651685393212,163.86259406489012L322.8848314606788,163.92124902193103L323.4044943820365,163.98016544078135L323.92415730339417,164.03934566287978L324.4438202246999,164.0995462636061L324.9634831460575,164.1613212685362L325.4831460674152,164.22338635993194L326.0028089887728,161.58690755446358L326.52247191013043,161.64029241077168L327.0421348314362,161.6938937685982L327.56179775279384,161.7479839424715L328.0814606741515,159.46161200089034L328.60112359550914,159.50895668806805L329.1207865168668,159.55647157852934L329.64044943822444,159.60415790044613L330.1601123595302,159.65201689533208L330.67977528088784,159.7000498182366L331.19943820224546,159.74825793794216L331.7191011236031,159.79664253716552L332.2387640449607,159.84520491276243L332.75842696631844,159.8939463759363L333.27808988762416,159.94357631757885L333.7977528089818,159.99442001276228L334.31741573033946,160.045460050808L334.8370786516971,160.09669795402925L335.3567415730547,160.14981333509448L335.8764044943605,160.20571084689595L336.3960674157181,160.26184576525247L336.91573033707573,158.16451561058025L337.43539325843335,158.21260285349564L337.9550561797911,158.26086569041792L338.4747191011487,158.30930540843656L338.9943820224545,158.35792330884453L339.5140449438121,158.40672070734797L340.03370786516973,158.45569893427992L340.55337078652735,158.50485933481792L341.073033707885,158.5542032692056L341.59269662919075,156.81767689312176L342.1123595505484,156.861097695349L342.632022471906,155.04183287748165L343.15168539326373,155.07978674951494L343.67134831462135,153.45248181280914L344.191011235979,153.48612997282453L344.71067415728476,151.99072447600926L345.2303370786424,152.0211048698389L345.75,152.05216151584438L346.2696629213576,152.08329130901032L346.7893258427153,152.1146251252244L347.308988764021,152.14708017675667L347.8286516853787,152.17961511950895L348.3483146067363,152.21297552791106L348.867977528094,152.24707956555497L349.3876404494516,152.2809633963617L349.90730337080925,150.7737818687615L350.426966292115,150.80471794445901L350.94662921347265,149.53914576878765L351.46629213483027,149.56764290201636L351.98595505618795,148.39414954556847L352.5056179775456,148.4208388501909L353.02528089890325,147.27174830073645L353.54494382020897,147.2964439875262L354.06460674156665,146.27456203980793L354.58426966292427,146.29813397093739L355.1039325842819,146.3218041572421L355.62359550563957,146.34588238541576L356.1432584269453,146.37000455839603L356.662921348303,146.3941708368823L357.1825842696606,146.4183813824569L357.7022471910183,145.49448557993148L358.2219101123759,145.5171544085819L358.7415730337335,144.68254835433842L359.2612359550393,144.70443667558055L359.7808988763969,143.91347429962408L360.30056179775454,143.12524294035003L360.8202247191122,143.14469660315177L361.3398876404699,143.16417894132312L361.8595505617756,143.18369003952586L362.37921348313324,143.2032299827972L362.8988764044909,143.2227988565522L363.41853932584854,142.41705995276496L363.93820224720616,142.43549799081856L364.45786516856384,141.6454473848715L364.97752808986957,141.66283913594245L365.49719101122724,141.68025380228536L366.01685393258487,141.69769144436594L366.53651685394254,141.71483517037186L367.05617977530017,141.73196149227948L367.57584269660595,140.9813878754123L368.09550561796357,140.9975891342279L368.6151685393212,141.01420478852756L369.13483146067887,141.0311047030265L369.6544943820365,141.04802625423537L370.17415730339417,141.06496949762754L370.6938202246999,141.0821610877243L371.2134831460575,140.34617302570544L371.7331460674152,140.36259713532928L372.2528089887728,139.66985488663022L372.77247191013043,139.68573106530818L373.2921348314881,139.0805947104476L373.81179775279384,139.09624943467114L374.3314606741515,138.46633634063545L374.85112359550914,138.48180711871106L375.37078651686676,137.86240446701004L375.89044943822444,128.65615456422233L376.41011235953016,128.66383444066884L376.92977528088784,128.67173291522428L377.44943820224546,128.67973216194028L377.9691011236031,128.38805058321768L378.48876404496076,128.39593776958822L379.0084269663184,128.09423213484195L379.52808988762416,127.78891650460767L380.0477528089818,127.79670974590002L380.56741573033946,127.49964104514459L381.087078651697,127.20711983880707L381.6067415730547,127.21459721685744L382.1264044943605,127.22223101741915L382.64606741571816,127.2298692296103L383.16573033707573,126.9655261988942L383.6853932584334,126.97321225240535L384.20505617979103,126.69552728104352L384.7247191011487,126.40119472591394L385.24438202245443,126.40871497216682L385.76404494381205,126.41623949974073L386.28370786516973,126.42376831351322L386.8033707865274,126.4313014183702L387.32303370788503,126.15992683151063L387.84269662919075,125.88384276794147L388.36235955054843,125.89107425792744L388.88202247190605,125.89833963818319L389.40168539326373,125.90562698322216L389.9213483146213,125.6430154251697L390.441011235979,125.6501633077884L390.96067415728476,125.65735620512012L391.4803370786424,125.38700602780784L392,125.1153030403691L392.5196629213577,124.85136253250195L393.0393258427153,124.85839907647531L393.5589887640211,124.86545044119043L394.0786516853787,124.87250556986223L394.5983146067363,124.59345755502792L395.117977528094,124.32235242127089L395.6376404494516,124.32924572344118L396.1573033708093,124.33623304540427L396.676966292115,124.34322406324563L397.19662921347265,123.81339678732002L397.7162921348303,123.5620734302473L398.235955056188,123.56896274471129L398.75561797754557,123.57591591183288L399.27528089885135,123.3350901432461L399.794943820209,123.09131072069749L400.31460674156665,122.84434214443436L400.83426966292427,122.60097086798598L401.3539325842819,122.6076195532003L401.87359550563957,122.61429960028315L402.39325842694535,122.62108580170491L402.912921348303,122.38981294936437L403.4325842696606,122.16485053953699L403.9522471910183,122.1715136519584L404.4719101123759,122.17821174923517L404.9915730337336,121.95337651718856L405.5112359550393,121.74060361342251L406.0308988763969,121.74719174991176L406.5505617977546,121.75396692158236L407.0702247191122,121.76076745440093L407.58988764046984,121.76757148808872L408.1095505617756,121.54459181062046L408.6292134831333,121.31134216081682L409.1488764044909,121.31791866608353L409.66853932584854,121.32449844530734L410.18820224720616,121.10047958284787L410.70786516856384,120.87077900449944L411.2275280898696,120.87713985638425L411.7471910112272,120.66454400692342L412.26685393258487,120.4513487020254L412.78651685394254,120.23880669988344L413.30617977530017,120.24487049605554L413.8258426966059,120.02983590555291L414.34550561796357,120.03580456109927L414.8651685393212,120.04179897388315L415.38483146067887,120.04789608186084L415.9044943820365,119.84825281590014L416.4241573033941,119.8542612700108L416.9438202246999,119.65339404219193L417.4634831460575,119.65931454363846L417.9831460674152,119.45658544913161L418.5028089887728,119.46241842490886L419.02247191013043,118.81384583199693L419.5421348314362,118.81944743135941L420.0617977527939,118.61879785902312L420.58146067415146,118.62431738353868L421.10112359550914,118.41792615630584L421.62078651686676,118.22280776723656L422.14044943822444,118.02856739961084L422.66011235953016,118.03410335154999L423.17977528088784,117.84556492685249L423.69943820224546,117.65203199076385L424.21910112360314,117.65752153159397L424.73876404496076,117.28515023434767L425.2584269662665,117.28515023434767L425.77808988762416,117.29053627754206L426.2977528089818,117.11025042542823L426.81741573033946,116.92996073256512L427.337078651697,116.93534977531635L427.8567415730547,116.5768735474831L428.3764044943605,116.23452130118994L428.89606741571816,116.23975225382881L429.41573033707573,116.05715040267964L429.9353932584334,115.87538516730854L430.45505617979103,115.8805207553433L430.9747191011487,115.88570885556217L431.49438202245443,115.70745530679329L432.01404494381205,115.52747611030111L432.53370786516973,115.5325410998513L433.0533707865274,115.36300262236796L433.57303370788503,115.19055666436708L434.09269662919075,115.0240543036528L434.61235955054843,115.02897731156429L435.13202247190605,114.85825235368327L435.65168539326373,114.86311397898425L436.1713483146213,114.86797739319823L436.691011235979,114.53587205549664L437.21067415728476,114.54066214094061L437.7303370786424,114.22236085917663L438.25,114.22715003553839L438.7696629213577,114.23199790457332L439.2893258427153,113.91918049906627L439.8089887640211,113.92402798339694L440.3286516853787,113.76967118388055L440.8483146067363,113.6155126125314L441.367977528094,113.62037055707964L441.8876404494516,113.47006306724577L442.4073033708093,113.31087010251704L442.926966292115,113.14923599477174L443.44662921347265,112.99834900310586L443.9662921348303,112.84760395293975L444.485955056188,112.69525157968201L445.00561797754557,112.38756575272382L445.52528089885135,112.23957608277195L446.044943820209,112.24408148716108L446.56460674156665,112.10194215071633L447.08426966292427,112.106483105868L447.6039325842819,111.96047057611733L448.12359550563957,111.821425807261L448.64325842694535,111.68042680359659L449.162921348303,111.40125338430991L449.6825842696606,111.2664242359819L450.2022471910183,111.13511146768937L450.7219101123759,111.00470250491418L451.2415730336816,110.87234270908559L451.7612359550393,110.74225181472525L452.2808988763969,110.61138003710678L452.8005617977546,110.48069507318112L453.3202247191122,110.35096653353895L453.8398876404699,110.21396856614808L454.3595505617756,110.07929846647346L454.8792134831333,109.94799406302752L455.3988764044909,109.68424507323536L455.91853932584854,109.55423840850418L456.43820224720616,109.42898093881871L456.95786516851194,109.30524055430891L457.4775280898696,109.05281491708584L457.9971910112272,108.92821979493579L458.51685393258487,108.8065950498627L459.03651685394254,108.68754436458613L459.55617977530017,108.57052455739415L460.0758426966059,108.45421183384167L460.59550561796357,108.33748685210048L461.1151685393212,108.34131925620991L461.63483146067887,108.22266851508525L462.1544943820365,107.99447067580124L462.67415730339417,107.88121978088742L463.1938202246999,107.77168459354291L463.7134831460575,107.54390407783617L464.2331460674152,107.43395638608885L464.75280898877287,107.32671180907624L465.27247191013043,107.21945633062967L465.7921348314362,107.11133021427312L466.3117977527939,107.00078545428474L466.83146067415146,106.88639797104443L467.35112359550914,106.77426663150561L467.87078651686676,106.55277935786361L468.39044943822444,106.44645394969876L468.91011235953016,106.45006538163895L469.42977528088784,106.230521418823L469.94943820224546,106.125674158028L470.46910112360314,106.12919898330975L470.98876404496076,106.02621404836384L471.5084269662665,105.81406734216449L472.02808988762416,105.71115999706623L472.5477528089818,105.61149829986124L473.06741573033946,105.50964836898862L473.5870786516971,105.30549380107058L474.1067415730547,105.2086320952505L474.6264044943605,105.10874926439467L475.14606741571816,105.00912261851093L475.66573033707573,104.91109762483083L476.1853932584334,104.81755934538208L476.70505617979103,104.62494104804304L477.2247191010968,104.53161605851818L477.74438202245443,104.4376470361386L478.26404494381205,104.33801418819232L478.78370786516973,104.23784787959556L479.3033707865274,104.03934393802447L479.82303370788503,103.94459088190041L480.34269662919075,103.84904465648654L480.86235955054843,103.75407210317849L481.38202247190605,103.65933199748602L481.90168539326373,103.46795222521584L482.42134831462135,103.37556064070071L482.9410112359271,103.28251146434499L483.46067415728476,103.19179689211384L483.9803370786424,103.00712824318973L484.50000000000006,102.91736577464607" stroke="#151bc6" stroke-width="2" fill-opacity="1" fill="none"></path><path d="M114.5,315L115.0196629213483,315L115.53932584269661,315L116.05898876404491,315L116.57865168539321,315L117.09831460674151,315L117.61797752808982,315L118.13764044943812,315L118.65730337078642,315L119.17696629213472,315L119.69662921348304,315L120.2162921348303,315L120.73595505617756,315L121.25561797753001,315L121.77528089887728,315L122.29494382022455,315L122.81460674157181,315L123.33426966291907,315L123.85393258427153,315L124.3735955056188,315L124.89325842696606,315L125.41292134831332,315L125.9325842696606,315L126.45224719101304,315L126.9719101123603,315L127.49157303370757,315L128.01123595505484,315L128.5308988764021,315L129.05056179775457,315L129.57022471910182,315L130.0898876404491,315L130.60955056179637,315L131.12921348314362,315L131.64887640449606,304.4461085759514L132.16853932584334,295.2847690933574L132.68820224719062,289.92572903966374L133.20786516853786,286.12342961076337L133.72752808988514,283.17413704451553L134.2471910112376,280.76438955706976L134.76685393258487,278.72697708685047L135.2865168539321,276.9620901281694L135.8061797752794,276.9620901281694L136.32584269662664,275.4053495033761L136.84550561797911,274.0127975619215L137.36516853932636,272.75308110079544L137.88483146067364,271.60305007447573L138.4044943820209,270.54512408318635L138.92415730337336,269.56563760425644L139.4438202247206,268.65375750822784L139.9634831460679,267.80075064557536L140.48314606741513,266.9994738647688L141.0028089887624,266.24401002078207L141.52247191011486,265.5294025278433L142.04213483146214,264.85145807932753L142.5617977528094,264.2065975505628L143.08146067415666,263.5917416182014L143.60112359550394,263.0042218259661L144.12078651685638,263.0042218259661L144.64044943820366,263.0042218259661L145.1601123595509,263.0042218259661L145.67977528089818,263.0042218259661L146.19943820224543,263.0042218259661L146.7191011235979,263.0042218259661L147.23876404494516,263.0042218259661L147.75842696629243,263.0042218259661L148.27808988763968,263.0042218259661L148.79775280898696,263.0042218259661L149.3174157303394,263.0042218259661L149.83707865168668,263.0042218259661L150.35674157303396,263.0042218259661L150.8764044943812,262.4417105918817L151.39606741572848,261.5543291479821L151.91573033708093,260.72279591968675L152.43539325842818,259.94049547959787L152.95505617977545,259.20192239706574L153.47471910112273,258.5024460094309L153.99438202247,257.83813438217476L154.51404494382246,257.2056204391182L155.0337078651697,256.6019986927621L155.55337078651698,256.0247445468987L156.07303370786423,255.47165049813572L156.5926966292115,254.94077515991307L157.11235955056395,254.43040213560744L157.63202247191123,253.9390065418938L158.1516853932585,253.46522753575806L158.67134831460575,253.0078455977495L159.19101123595303,252.56576361634893L159.71067415730548,252.13799103486872L160.23033707865272,251.72363048449444L160.75,251.32186644979768L161.26966292134728,251.16451912670902L161.78932584269452,251.16451912670902L162.308988764047,250.62810270670707L162.82865168539425,250.04058291447177L163.34831460674152,249.47807168038736L163.86797752808877,248.9385266015853L164.38764044943605,248.420145689098L164.9073033707885,247.92133105559407L165.42696629213577,247.44065921016806L165.94662921348302,246.97685656810347L166.4662921348303,246.5287791141395L166.98595505618795,246.0953954015882L167.5056179775456,245.675772251487L168.02528089885135,245.2690626530134L168.54494382020897,244.87449547068042L169.06460674156662,244.49136664392023L169.58426966292427,244.1190316266937L170.1039325842819,243.75689886318833L170.62359550563957,243.40442413375493L171.1432584269453,243.06110563540435L171.66292134830294,242.72647968523916L172.1825842696606,242.4001169544987L172.70224719101824,242.0816191564744L173.2219101123759,241.7706161241964L173.74157303373352,241.46676322411307L174.26123595503927,241.16973906044583L174.78089887639692,241.02369316518508L175.30056179775457,240.91520813172727L175.82022471911222,240.80760629694043L176.33988764046984,240.7008733962778L176.8595505617756,240.66548644330646L177.37921348313324,240.66548644330646L177.8988764044909,240.66548644330646L178.41853932584854,240.66548644330646L178.93820224720616,240.66548644330646L179.4578651685638,240.66548644330646L179.97752808986957,240.5598905231205L180.49719101122722,240.28235761654628L181.01685393258487,240.0105327341815L181.5365168539425,239.74418580586735L182.05617977530014,239.48310039706064L182.5758426966059,239.2270726521494L183.09550561796354,238.9759103381847L183.6151685393212,238.7294319777917L184.1348314606788,238.48746606146184L184.65449438203646,238.24985033066218L185.1741573033941,238.01643112425677L185.6938202246999,237.78706278164668L186.2134831460575,237.56160709682248L186.73314606741513,237.33993281820528L187.25280898877278,237.12191518974404L187.77247191013043,236.9074355292511L188.29213483143621,236.69638084040838L188.81179775279384,236.48864345526798L189.33146067415146,236.28412070441578L189.85112359550914,236.0827146122685L190.37078651686676,235.9336489076823L190.8904494382244,235.85974180528353L191.41011235953016,235.78624568055494L191.9297752808878,235.7131559880864L192.44943820224546,235.64046825746163L192.96910112360308,235.56817809161734L193.48876404496073,235.49628116524724L194.00842696631838,235.42477322324905L194.52808988762413,235.35365007921342L195.04775280898178,235.28290761395323L195.5674157303394,235.23595545431255L196.08707865169708,235.0729240774882L196.6067415730547,234.8890321505286L197.12640449436046,234.70766369167725L197.6460674157181,234.66270780126212L198.16573033707573,234.66270780126212L198.6853932584334,234.66270780126212L199.20505617979103,234.66270780126212L199.72471910114865,234.66270780126212L200.24438202245443,234.66270780126212L200.76404494381208,234.66270780126212L201.28370786516973,234.1348365519048L201.80337078652735,233.50333018022476L202.32303370788497,232.0267693084523L202.84269662919075,230.53349834171695L203.36235955054838,228.58315637324353L203.88202247190605,226.88395079403472L204.40168539326368,225.4677514653455L204.92134831462133,225.0058785123094L205.44101123597898,224.55960235566192L205.9606741572847,224.12790394997165L206.48033707864238,223.70986097024394L207,223.3046359463532L207.51966292135765,222.9114661630297L208.0393258427153,222.5296550192415L208.55898876402102,222.15856460101202L209.0786516853787,221.79760926875997L209.59831460673632,221.30664685863036L210.11797752809397,220.69996219023218L210.63764044945162,220.11990753179566L211.15730337080927,219.56424304299304L211.67696629211503,219.0310001039074L212.19662921347265,218.51843921951337L212.7162921348303,218.08889710531474L213.23595505618795,216.85481987441983L213.7556179775456,215.6088971164293L214.27528089885135,214.47037184953393L214.79494382020897,213.42218933014874L215.31460674156662,212.45106011930596L215.83426966292427,211.54642726590419L216.35393258428192,210.96603740178216L216.87359550563957,210.68512821307803L217.3932584269453,210.41006531567555L217.91292134830294,210.1406103161826L218.4325842696606,209.87653911173118L218.95224719101824,209.6311413014677L219.4719101123759,208.96603514346054L219.99157303373352,208.26563186364538L220.5112359550393,207.60048427174274L221.03089887639692,206.96721253726668L221.55056179775457,206.3629006972391L222.07022471911222,205.78501547161153L222.58988764046984,205.28470506568675L223.10955056177562,205.10126650264485L223.62921348313324,204.92033906518355L224.1488764044909,204.7418549301453L224.66853932584854,204.56574898556022L225.18820224720616,204.39195868804006L225.7078651685638,204.22042392942703L226.22752808986957,204.05108691198552L226.74719101122724,203.88389203148864L227.26685393258487,203.73606856711424L227.7865168539425,203.30645104279327L228.30617977530014,202.8458237992748L228.8258426966059,202.40071073907654L229.34550561796357,201.97010077112304L229.8651685393212,201.55307853535595L230.3848314606788,201.14881268636503L230.9044943820365,200.7341339567139L231.4241573033941,200.29702786791287L231.9438202246999,199.87391594193696L232.4634831460575,199.46392984721177L232.98314606741513,199.06627964550358L233.5028089887728,198.68024463043815L234.02247191013043,198.30516546644188L234.54213483143621,197.94043741270218L235.06179775279384,197.58550445725223L235.5814606741515,197.23985421831753L236.10112359550914,196.90430264640509L236.62078651686676,196.76324454083112L237.1404494382244,196.6236759890175L237.66011235953016,196.48556586045532L238.1797752808878,196.34888399045678L238.69943820224546,196.21360114061116L239.21910112360308,196.07968896124424L239.73876404496076,195.94711995576006L240.25842696631838,195.81586744675383L240.77808988762413,195.6859055437906L241.29775280898178,195.55720911275282L241.81741573033943,195.42975374666582L242.33707865169708,195.30351573791683L242.8567415730547,195.17847205178794L243.37640449436046,195.05460030122958L243.8960674157181,194.93187872280498L244.41573033707576,194.80478570876653L244.93539325843338,194.52402503548942L245.45505617979103,194.24910453737243L245.97471910114868,193.97978619121207L246.49438202245443,193.71584623504478L247.01404494381208,193.42830148771642L247.53370786516973,193.1352422315454L248.05337078652735,192.84854023648194L248.573033707885,192.5632832612375L249.09269662919075,192.24593482687771L249.6123595505484,191.93602779258157L250.13202247190603,191.62284265720245L250.6516853932637,191.3000228882952L251.17134831462133,190.9849002228325L251.69101123597898,190.86027232088867L252.21067415728473,190.7376171140583L252.73033707864238,190.61608970131624L253.25,190.4956695317258L253.76966292135765,190.37633661100867L254.2893258427153,190.10072877225514L254.80898876402105,189.8466135378327L255.32865168537867,189.63963641425264L255.84831460673632,189.44537904011815L256.367977528094,189.2756335383933L256.8876404494516,189.22650226798334L257.40730337080925,189.1775529557477L257.926966292115,189.12162754491857L258.44662921347265,189.05027273661867L258.96629213483027,188.97930108437376L259.48595505618795,188.9087084952629L260.00561797754557,188.8447952675178L260.5252808988513,188.6334963947864L261.04494382020897,188.38079934473026L261.56460674156665,188.13284312748388L262.08426966292427,187.8894531290347L262.6039325842819,187.8049907428369L263.12359550563957,187.71463085062652L263.6432584269453,187.62488452338138L264.1629213483029,187.53574348476675L264.6825842696606,187.431450452216L265.2022471910183,187.31798280504955L265.7219101123759,187.14188555722575L266.2415730337335,186.8464766456256L266.7612359550393,186.55752622550835L267.2808988763969,186.27475792583957L267.80056179775454,186.1330421713107L268.3202247191122,186.03015008177204L268.8398876404699,185.92805280494875L269.3595505617756,185.76831845233053L269.87921348313324,185.50177632297297L270.3988764044909,185.24050335206542L270.91853932584854,184.9842952441911L271.43820224720616,184.7329593597224L271.95786516856384,184.4863138446707L272.47752808986957,184.24418684025053L272.9971910112272,184.006415763553L273.51685393258487,183.77284665178686L274.03651685394254,183.54333356346342L274.55617977530017,183.3177380306924L275.0758426966059,183.2171195845676L275.59550561796357,183.13453433456246L276.1151685393212,183.05246190774258L276.6348314606788,182.9708959745158L277.1544943820365,182.86707811891648L277.67415730339417,182.76406938678156L278.1938202246999,182.6565918684006L278.7134831460575,182.42351824723994L279.2331460674152,182.17416535731792L279.7528089887728,181.9248632544156L280.27247191013043,181.68017661500775L280.7921348314362,181.4399376437735L281.31179775279384,181.20398753257652L281.83146067415146,180.97217582989688L282.35112359550914,180.74435986461398L282.8707865168668,180.56451831304486L283.39044943822444,180.47792489897765L283.91011235953016,180.39189512473837L284.42977528088784,180.30642170024663L284.94943820224546,180.22149747594796L285.4691011236031,180.12189680612406L285.9887640449607,180.00795317268222L286.50842696631844,179.86689125573622L287.02808988762416,179.60869829542784L287.5477528089818,179.355452614931L288.06741573033946,179.14323810140215L288.5870786516971,179.02272344104435L289.1067415730547,178.9023070344058L289.6264044943605,178.64786158501937L290.1460674157181,178.39822217669183L290.66573033707573,178.23804073141608L291.18539325843335,178.00027113235782L291.7050561797911,177.74974457084014L292.2247191011487,177.5038784997945L292.74438202245443,177.341494334868L293.2640449438121,177.10303949049558L293.78370786516973,176.86881059917803L294.30337078652735,176.68437100780432L294.823033707885,176.46534451046378L295.34269662919075,176.22991060153657L295.8623595505484,175.99250155438332L296.382022471906,175.7553774060615L296.90168539326373,175.52243258870408L297.42134831462135,175.2832223404385L297.941011235979,175.04579788831168L298.46067415728476,174.8125632663574L298.9803370786424,174.64089718468102L299.5,174.42475471660612L300.0196629213576,174.19149617343984L300.5393258427153,173.9697839203024L301.058988764021,173.83451357328315L301.57865168537865,173.60295104475796L302.0983146067363,173.37537574188354L302.617977528094,173.2544225507269L303.1376404494516,173.02425104677042L303.65730337080925,172.7730737914918L304.176966292115,172.52658104190488L304.69662921347265,172.2846012584528L305.21629213483027,172.04697215469605L305.73595505618795,171.82938709492828L306.2556179775456,171.7253762072247L306.77528089890325,171.6347474865874L307.29494382020897,171.4309189112254L307.81460674156665,171.20802841050983L308.33426966292427,170.9888344610118L308.8539325842819,170.7732164486553L309.37359550563957,170.5610595679682L309.8932584269453,170.35225445498858L310.4129213483029,170.26057693639953L310.9325842696606,170.07673661748606L311.4522471910183,169.87538751162975L311.9719101123759,169.67705980321196L312.4915730337335,169.48166415440164L313.0112359550393,169.28911513207248L313.5308988763969,169.0993309835152L314.05056179775454,168.9122334280259L314.5702247191122,168.80412446669666L315.0898876404699,168.63342413681985L315.6095505617756,168.4451265031139L316.12921348313324,168.25947383354378L316.6488764044909,168.07639285009594L317.16853932584854,167.8958132784175L317.68820224720616,167.73780067163736L318.20786516856384,167.66140150492834L318.72752808986957,167.58544141631415L319.24719101122724,167.52470686300143L319.76685393258487,167.36869798008627L320.28651685394254,167.19747238528333L320.80617977530017,167.0284366671026L321.3258426966059,166.8615355176375L321.84550561796357,166.69671569817783L322.3651685393212,166.533925937262L322.8848314606788,166.44909315032555L323.4044943820365,166.3797729614963L323.92415730339417,166.3108144448626L324.4438202246999,166.20804660844667L324.9634831460575,166.0460112736137L325.4831460674152,165.91680919389395L326.0028089887728,165.85464732798164L326.52247191013043,165.70768739753868L327.0421348314362,165.54634589260482L327.56179775279384,165.47011231942963L328.0814606741515,165.37709598272295L328.60112359550914,165.21432275500337L329.1207865168668,165.05352978601374L329.64044943822444,164.89466947164027L330.1601123595302,164.73769590395924L330.67977528088784,164.59240304276295L331.19943820224546,164.52702679922166L331.7191011236031,164.46197233964756L332.2387640449607,164.42172371460842L332.75842696631844,164.2853071826435L333.27808988762416,164.13352998982654L333.7977528089818,163.98069933879438L334.31741573033946,163.82961571280535L334.8370786516971,163.68023962195292L335.3567415730547,163.54358223657226L335.8764044943605,163.4384209296053L336.3960674157181,163.27382735650164L336.91573033707573,163.17419756597786L337.43539325843335,163.0289288844799L337.9550561797911,162.86932639835572L338.4747191011487,162.71162822384883L338.9943820224545,162.55578945331698L339.5140449438121,162.40176674914747L340.03370786516973,162.29023483929302L340.55337078652735,162.15431589789955L341.073033707885,162.00561107423624L341.59269662919075,161.93828432725633L342.1123595505484,161.79125316394286L342.632022471906,161.67522515242774L343.15168539326373,161.52681797035999L343.67134831462135,161.36936254261954L344.191011235979,161.18797557083914L344.71067415728476,161.07898884557557L345.2303370786424,160.9006712155423L345.75,160.70346064129822L346.2696629213576,160.50914942931485L346.7893258427153,160.35339398388146L347.308988764021,160.18021532447398L347.8286516853787,159.9903926848028L348.3483146067363,159.8010004033885L348.867977528094,159.6130559258457L349.3876404494516,159.44508513385375L349.90730337080925,159.319611412329L350.426966292115,159.15367542850854L350.94662921347265,159.00810923242335L351.46629213483027,158.84514589256636L351.98595505618795,158.72528683679465L352.5056179775456,158.56369728748214L353.02528089890325,158.4519033034571L353.54494382020897,158.2929076369201L354.06460674156665,158.18406008766607L354.58426966292427,158.02598945098336L355.1039325842819,157.852380358225L355.62359550563957,157.67883449463503L356.1432584269453,157.50753787060796L356.662921348303,157.36041560947305L357.1825842696606,157.19317079010554L357.7022471910183,157.10090956799795L358.2219101123759,156.93664568413212L358.7415730337335,156.832963654069L359.2612359550393,156.6762767508659L359.7808988763969,156.52749989600787L360.30056179775454,156.3776756057966L360.8202247191122,156.22002970386464L361.3398876404699,156.06424198067847L361.8595505617756,155.91026914120405L362.37921348313324,155.78262546549436L362.8988764044909,155.64619552198383L363.41853932584854,155.5260204299686L363.93820224720616,155.39286954368316L364.45786516856384,155.29155515769733L364.97752808986957,155.16073394554508L365.49719101122724,155.01687974567767L366.01685393258487,154.87457441393903L366.53651685394254,154.71676804544882L367.05617977530017,154.55982887914928L367.57584269660595,154.47877415819298L368.09550561796357,154.33918188563828L368.6151685393212,154.17041174365L369.13483146067887,154.00306678721174L369.6544943820365,153.9390251130156L370.17415730339417,153.8587490844534L370.6938202246999,153.7307328306305L371.2134831460575,153.648238471324L371.7331460674152,153.52823836108487L372.2528089887728,153.43867135176282L372.77247191013043,153.31449820369065L373.2921348314881,153.2375374670606L373.81179775279384,153.11588807317003L374.3314606741515,153.01876264102978L374.85112359550914,152.92484359466587L375.37078651686676,152.81363851372265L375.89044943822444,152.59598187408147L376.41011235953016,152.45205500347672L376.92977528088784,152.37075648695924L377.44943820224546,152.23052131352472L377.9691011236031,152.14524837466737L378.48876404496076,151.97775641256925L379.0084269663184,151.86724855209846L379.52808988762416,151.77965544748938L380.0477528089818,151.6062336200738L380.56741573033946,151.433611375475L381.087078651697,151.323853877795L381.6067415730547,151.09172450431402L382.1264044943605,150.94973278314197L382.64606741571816,150.82775050585408L383.16573033707573,150.75755562663286L383.6853932584334,150.6066625190875L384.20505617979103,150.4967971069867L384.7247191011487,150.4222072273008L385.24438202245443,150.2170148347073L385.76404494381205,150.03208250258498L386.28370786516973,149.95584925172855L386.8033707865274,149.80465276650207L387.32303370788503,149.69963567605487L387.84269662919075,149.61117016810607L388.36235955054843,149.41810172460495L388.88202247190605,149.21487921413197L389.40168539326373,149.08370728611854L389.9213483146213,148.9169823797327L390.441011235979,148.7264494359297L390.96067415728476,148.5846146222627L391.4803370786424,148.44049584099454L392,148.2995615637714L392.5196629213577,148.16495399616736L393.0393258427153,147.99421872056936L393.5589887640211,147.81635404703076L394.0786516853787,147.7061465054879L394.5983146067363,147.56544887752648L395.117977528094,147.42434133655914L395.6376404494516,147.24216221918368L396.1573033708093,147.10793162234413L396.676966292115,146.95730793309642L397.19662921347265,146.82353411245072L397.7162921348303,146.68576162090167L398.235955056188,146.49162144681122L398.75561797754557,146.32090593584843L399.27528089885135,146.1832755474875L399.794943820209,146.05473630902597L400.31460674156665,145.92198720681404L400.83426966292427,145.79325488611846L401.3539325842819,145.60670470324888L401.87359550563957,145.43970282064137L402.39325842694535,145.34152170672144L402.912921348303,145.22604384398383L403.4325842696606,145.10938915533586L403.9522471910183,144.907745361827L404.4719101123759,144.83751174974626L404.9915730337336,144.7188750019002L405.5112359550393,144.6049908221492L406.0308988763969,144.3969303821304L406.5505617977546,144.2859436687249L407.0702247191122,144.0549702307181L407.58988764046984,143.96032280794458L408.1095505617756,143.84810824798583L408.6292134831333,143.63671124597457L409.1488764044909,143.4393812839053L409.66853932584854,143.3309934195146L410.18820224720616,143.21731576299058L410.70786516856384,143.10570783051497L411.2275280898696,142.89835929371327L411.7471910112272,142.78403085059716L412.26685393258487,142.588760024583L412.78651685394254,142.4803204895923L413.30617977530017,142.289060609855L413.8258426966059,142.09963157885107L414.34550561796357,141.91778651586577L414.8651685393212,141.7138645505652L415.38483146067887,141.5419462230958L415.9044943820365,141.330203752518L416.4241573033941,141.1850025908889L416.9438202246999,140.9808256882987L417.4634831460575,140.8376311317345L417.9831460674152,140.63679367920008L418.5028089887728,140.4954524854811L419.02247191013043,140.3015077298514L419.5421348314362,140.05607305460467L420.0617977527939,139.9424129234213L420.58146067415146,139.7154120434086L421.10112359550914,139.60041105793925L421.62078651686676,139.39929557954343L422.14044943822444,139.20955021620352L422.66011235953016,138.98207508017194L423.17977528088784,138.7910538476978L423.69943820224546,138.5931776571141L424.21910112360314,138.37781372773497L424.73876404496076,138.21311682745062L425.2584269662665,138.21311682745062L425.77808988762416,137.99932228915574L426.2977528089818,137.81697041373013L426.81741573033946,137.6296378689178L427.337078651697,137.4290293484317L427.8567415730547,137.28656696572926L428.3764044943605,137.1400171980551L428.89606741571816,136.93422796814212L429.41573033707573,136.72480202544335L429.9353932584334,136.5722309378769L430.45505617979103,136.36445461466033L430.9747191011487,136.1755176314282L431.49438202245443,135.9818725165053L432.01404494381205,135.84425119481062L432.53370786516973,135.6638093773862L433.0533707865274,135.47252461208078L433.57303370788503,135.34741960562152L434.09269662919075,135.16228056173196L434.61235955054843,134.98490058313604L435.13202247190605,134.8603314716036L435.65168539326373,134.68809573910738L436.1713483146213,134.51118227622172L436.691011235979,134.3848682771358L437.21067415728476,134.2119412589826L437.7303370786424,134.09122316697383L438.25,133.93526036889577L438.7696629213577,133.77025229150834L439.2893258427153,133.6502553676417L439.8089887640211,133.49938111257492L440.3286516853787,133.32802048918066L440.8483146067363,133.22404708182097L441.367977528094,133.05528128749904L441.8876404494516,132.87368753064737L442.4073033708093,132.77988261266788L442.926966292115,132.58910128831337L443.44662921347265,132.50319667281536L443.9662921348303,132.3226649037109L444.485955056188,132.24282204671624L445.00561797754557,132.13442906677034L445.52528089885135,131.95784711085832L446.044943820209,131.80201411191987L446.56460674156665,131.71371566940178L447.08426966292427,131.563989504542L447.6039325842819,131.3914895915647L448.12359550563957,131.32040992042724L448.64325842694535,131.1376230403708L449.162921348303,131.04186729514367L449.6825842696606,130.86025220247163L450.2022471910183,130.67653501663378L450.7219101123759,130.48881980721308L451.2415730336816,130.30357460644586L451.7612359550393,130.12393065924203L452.2808988763969,129.9462891221711L452.8005617977546,129.77421365199072L453.3202247191122,129.60831220795833L453.8398876404699,129.43507648777398L454.3595505617756,129.26446815323607L454.8792134831333,129.08841138508888L455.3988764044909,128.99803768202133L455.91853932584854,128.82285715960703L456.43820224720616,128.6514426131113L456.95786516851194,128.48877532790868L457.4775280898696,128.4042059321053L457.9971910112272,128.2466799794757L458.51685393258487,128.0948965691448L459.03651685394254,127.9361033097849L459.55617977530017,127.78092077351874L460.0758426966059,127.62856262579024L460.59550561796357,127.47220770578792L461.1151685393212,127.26148166818126L461.63483146067887,127.1179166613046L462.1544943820365,127.04263430571672L462.67415730339417,126.89624868833639L463.1938202246999,126.75849249185362L463.7134831460575,126.68395354985134L464.2331460674152,126.5493243810626L464.75280898877287,126.4138740087476L465.27247191013043,126.27794933670961L465.7921348314362,126.13883534105798L466.3117977527939,125.99574169114089L466.83146067415146,125.86343172655569L467.35112359550914,125.72445484623913L467.87078651686676,125.6505158095697L468.39044943822444,125.51578362796056L468.91011235953016,125.31837438234106L469.42977528088784,125.24666645193764L469.94943820224546,125.11343004477646L470.46910112360314,124.91856154376828L470.98876404496076,124.78940158171667L471.5084269662665,124.72515490945617L472.02808988762416,124.59894731006705L472.5477528089818,124.46775399158466L473.06741573033946,124.3439691385777L473.5870786516971,124.27708001181969L474.1067415730547,124.15558461968598L474.6264044943605,124.03337628695829L475.14606741571816,123.91203003044234L475.66573033707573,123.79102210319928L476.1853932584334,123.67414713875274L476.70505617979103,123.61307312454366L477.2247191010968,123.49900244762213L477.74438202245443,123.38021659484912L478.26404494381205,123.25562502526867L478.78370786516973,123.14142634685288L479.3033707865274,123.08130842340745L479.82303370788503,122.96572226989286L480.34269662919075,122.87540432663667L480.86235955054843,122.76419437027917L481.38202247190605,122.64712331864766L481.90168539326373,122.5859455004898L482.42134831462135,122.47320740209119L482.9410112359271,122.36394248097889L483.46067415728476,122.22538867191398L483.9803370786424,122.16951346255277L484.50000000000006,122.06048152722673" stroke="#de1212" stroke-width="2" fill-opacity="1" fill="none"></path></g></g><g></g><g><g><text text-anchor="middle" x="114.5" y="335.05" font-family="Arial" font-size="13" stroke="none" stroke-width="0" fill="#444444">0</text></g><g><text text-anchor="middle" x="218.2868" y="335.05" font-family="Arial" font-size="13" stroke="none" stroke-width="0" fill="#444444">200</text></g><g><text text-anchor="middle" x="322.0736" y="335.05" font-family="Arial" font-size="13" stroke="none" stroke-width="0" fill="#444444">400</text></g><g><text text-anchor="middle" x="425.8604" y="335.05" font-family="Arial" font-size="13" stroke="none" stroke-width="0" fill="#444444">600</text></g><g><text text-anchor="end" x="104.33333333333334" y="319.55" font-family="Arial" font-size="13" stroke="none" stroke-width="0" fill="#444444">0</text></g><g><text text-anchor="end" x="104.33333333333334" y="293.08320000000003" font-family="Arial" font-size="13" stroke="none" stroke-width="0" fill="#444444">10</text></g><g><text text-anchor="end" x="104.33333333333334" y="262.6499" font-family="Arial" font-size="13" stroke="none" stroke-width="0" fill="#444444">100</text></g><g><text text-anchor="end" x="104.33333333333334" y="232.2166" font-family="Arial" font-size="13" stroke="none" stroke-width="0" fill="#444444">1,000</text></g><g><text text-anchor="end" x="104.33333333333334" y="201.78320000000002" font-family="Arial" font-size="13" stroke="none" stroke-width="0" fill="#444444">10,000</text></g><g><text text-anchor="end" x="104.33333333333334" y="171.34990000000002" font-family="Arial" font-size="13" stroke="none" stroke-width="0" fill="#444444">100,000</text></g><g><text text-anchor="end" x="104.33333333333334" y="140.91660000000002" font-family="Arial" font-size="13" stroke="none" stroke-width="0" fill="#444444">1,000,000</text></g><g><text text-anchor="end" x="104.33333333333334" y="110.4833" font-family="Arial" font-size="13" stroke="none" stroke-width="0" fill="#444444">10,000,000</text></g><g><text text-anchor="end" x="104.33333333333334" y="80.05" font-family="Arial" font-size="13" stroke="none" stroke-width="0" fill="#444444">100,000,000</text></g></g></g><g><g><text text-anchor="middle" x="299.5" y="368.05" font-family="Arial" font-size="13" font-style="italic" stroke="none" stroke-width="0" fill="#222222">Hour</text><rect x="114" y="357" width="371" height="13" stroke="none" stroke-width="0" fill-opacity="0" fill="#ffffff"></rect></g><g><text text-anchor="middle" x="20.71666666666667" y="195.5" font-family="Arial" font-size="13" font-style="italic" transform="rotate(-90 20.71666666666667 195.5)" stroke="none" stroke-width="0" fill="#222222">Total</text><path d="M9.666666666666659,316L9.666666666666673,75L22.666666666666675,75L22.66666666666666,316Z" stroke="none" stroke-width="0" fill-opacity="0" fill="#ffffff"></path></g></g><g></g></svg>